<svg width="104" height="104" viewBox="0 0 104 104" fill="none" xmlns="http://www.w3.org/2000/svg">
<rect x="1" y="1" width="102" height="102" rx="51" stroke="#EAB308" stroke-width="2" stroke-dasharray="8 4"/>
<rect x="2.5" y="8.5" width="95" height="95" rx="47.5" fill="#EAB308"/>
<rect x="2.5" y="8.5" width="95" height="95" rx="47.5" stroke="#EAB308"/>
<path d="M64 36H36C35.4696 36 34.9609 35.7893 34.5858 35.4142C34.2107 35.0391 34 34.5304 34 34C34 33.4696 34.2107 32.9609 34.5858 32.5858C34.9609 32.2107 35.4696 32 36 32H64C64.5304 32 65.0391 32.2107 65.4142 32.5858C65.7893 32.9609 66 33.4696 66 34C66 34.5304 65.7893 35.0391 65.4142 35.4142C65.0391 35.7893 64.5304 36 64 36Z" fill="white"/>
<path d="M68 42H32C31.4696 42 30.9609 41.7893 30.5858 41.4142C30.2107 41.0391 30 40.5304 30 40C30 39.4696 30.2107 38.9609 30.5858 38.5858C30.9609 38.2107 31.4696 38 32 38H68C68.5304 38 69.0391 38.2107 69.4142 38.5858C69.7893 38.9609 70 39.4696 70 40C70 40.5304 69.7893 41.0391 69.4142 41.4142C69.0391 41.7893 68.5304 42 68 42Z" fill="white"/>
<path d="M70.3913 80H29.6088C28.1217 79.9983 26.6961 79.4069 25.6446 78.3554C24.5931 77.3039 24.0017 75.8783 24 74.3913V49.6087C24.0017 48.1217 24.5931 46.6961 25.6446 45.6446C26.6961 44.5931 28.1217 44.0017 29.6088 44H70.3913C71.8783 44.0017 73.3039 44.5931 74.3554 45.6446C75.4069 46.6961 75.9983 48.1217 76 49.6087V74.3913C75.9983 75.8783 75.4069 77.3039 74.3554 78.3554C73.3039 79.4069 71.8783 79.9983 70.3913 80V80Z" fill="white"/>
</svg>
