<svg width="104" height="104" viewBox="0 0 104 104" fill="none" xmlns="http://www.w3.org/2000/svg">
<rect x="1" y="1" width="102" height="102" rx="51" stroke="#EF4444" stroke-width="2" stroke-dasharray="8 4"/>
<rect x="8.5" y="8.5" width="95" height="95" rx="47.5" fill="#EF4444"/>
<rect x="8.5" y="8.5" width="95" height="95" rx="47.5" stroke="#EF4444"/>
<path d="M70 36H42C41.4696 36 40.9609 35.7893 40.5858 35.4142C40.2107 35.0391 40 34.5304 40 34C40 33.4696 40.2107 32.9609 40.5858 32.5858C40.9609 32.2107 41.4696 32 42 32H70C70.5304 32 71.0391 32.2107 71.4142 32.5858C71.7893 32.9609 72 33.4696 72 34C72 34.5304 71.7893 35.0391 71.4142 35.4142C71.0391 35.7893 70.5304 36 70 36Z" fill="white"/>
<path d="M74 42H38C37.4696 42 36.9609 41.7893 36.5858 41.4142C36.2107 41.0391 36 40.5304 36 40C36 39.4696 36.2107 38.9609 36.5858 38.5858C36.9609 38.2107 37.4696 38 38 38H74C74.5304 38 75.0391 38.2107 75.4142 38.5858C75.7893 38.9609 76 39.4696 76 40C76 40.5304 75.7893 41.0391 75.4142 41.4142C75.0391 41.7893 74.5304 42 74 42Z" fill="white"/>
<path d="M76.3913 80H35.6088C34.1217 79.9983 32.6961 79.4069 31.6446 78.3554C30.5931 77.3039 30.0017 75.8783 30 74.3913V49.6087C30.0017 48.1217 30.5931 46.6961 31.6446 45.6446C32.6961 44.5931 34.1217 44.0017 35.6088 44H76.3913C77.8783 44.0017 79.3039 44.5931 80.3554 45.6446C81.4069 46.6961 81.9983 48.1217 82 49.6087V74.3913C81.9983 75.8783 81.4069 77.3039 80.3554 78.3554C79.3039 79.4069 77.8783 79.9983 76.3913 80V80Z" fill="white"/>
</svg>
