<svg width="16" height="18" viewBox="0 0 16 18" fill="none" xmlns="http://www.w3.org/2000/svg">
<path d="M2.23445 17.5594C1.94665 17.5589 1.66394 17.4834 1.41414 17.3405C0.851641 17.0217 0.501953 16.403 0.501953 15.7313V2.13751C0.501953 1.46392 0.851641 0.847042 1.41414 0.528292C1.66989 0.381309 1.96043 0.305723 2.25539 0.309434C2.55034 0.313144 2.83889 0.396016 3.09086 0.549386L14.7088 7.50376C14.951 7.65558 15.1506 7.86642 15.2889 8.11648C15.4273 8.36655 15.4999 8.64766 15.4999 8.93345C15.4999 9.21924 15.4273 9.50035 15.2889 9.75042C15.1506 10.0005 14.951 10.2113 14.7088 10.3631L3.08898 17.3194C2.83112 17.4753 2.53577 17.5582 2.23445 17.5594Z" fill="#2563EB"/>
</svg>
