<svg width="64" height="64" viewBox="0 0 64 64" fill="none" xmlns="http://www.w3.org/2000/svg">
<path d="M0.5 32C0.5 14.603 14.603 0.5 32 0.5C49.397 0.5 63.5 14.603 63.5 32C63.5 49.397 49.397 63.5 32 63.5C14.603 63.5 0.5 49.397 0.5 32Z" stroke="#2563EB"/>
<path d="M24.1 32.688H36.412L37.546 36.036H23.182L24.1 32.688ZM44.242 40.572C44.386 41.04 44.746 41.364 45.322 41.544L47.752 42.192V45H33.01V42.192L36.79 41.544L29.176 16.812H30.85L23.398 41.544L27.124 42.192V45H15.676V42.192L18.322 41.544C18.862 41.4 19.204 41.076 19.348 40.572L28.312 13.95H35.278L44.242 40.572Z" fill="#2563EB"/>
</svg>
